<svg xmlns="http://www.w3.org/2000/svg" xmlns:xlink="http://www.w3.org/1999/xlink" width="1000" zoomAndPan="magnify" viewBox="0 0 750 225" height="300" preserveAspectRatio="xMidYMid meet" version="1.0"><defs><g/><clipPath id="a5868e0924"><path d="M 313.257812 44.929688 L 453.507812 44.929688 L 453.507812 187.429688 L 313.257812 187.429688 Z M 313.257812 44.929688 " clip-rule="nonzero"/></clipPath><clipPath id="dc57e566ac"><path d="M 367.015625 0 L 399.582031 0 L 399.582031 30.992188 L 367.015625 30.992188 Z M 367.015625 0 " clip-rule="nonzero"/></clipPath><clipPath id="fd421c737c"><path d="M 383.273438 0 L 387.113281 11.839844 L 399.53125 11.839844 L 389.484375 19.15625 L 393.324219 30.992188 L 383.273438 23.675781 L 373.226562 30.992188 L 377.0625 19.15625 L 367.015625 11.839844 L 379.4375 11.839844 Z M 383.273438 0 " clip-rule="nonzero"/></clipPath><clipPath id="c084656903"><path d="M 0.015625 0 L 32.582031 0 L 32.582031 30.992188 L 0.015625 30.992188 Z M 0.015625 0 " clip-rule="nonzero"/></clipPath><clipPath id="00029b78d8"><path d="M 16.273438 0 L 20.113281 11.839844 L 32.53125 11.839844 L 22.484375 19.15625 L 26.324219 30.992188 L 16.273438 23.675781 L 6.226562 30.992188 L 10.0625 19.15625 L 0.015625 11.839844 L 12.4375 11.839844 Z M 16.273438 0 " clip-rule="nonzero"/></clipPath><clipPath id="8aea6508c5"><rect x="0" width="33" y="0" height="31"/></clipPath><clipPath id="c9bcc00811"><path d="M 717.28125 60.742188 L 737.53125 60.742188 L 737.53125 80.992188 L 717.28125 80.992188 Z M 717.28125 60.742188 " clip-rule="nonzero"/></clipPath><clipPath id="51014482df"><rect x="0" width="300" y="0" height="217"/></clipPath><clipPath id="2d94a0acc2"><rect x="0" width="288" y="0" height="217"/></clipPath></defs><g clip-path="url(#a5868e0924)"><path fill="#ffffff" d="M 453.285156 187.566406 L 313.261719 187.566406 L 313.261719 95.46875 L 383.261719 44.992188 L 453.261719 95.46875 L 453.261719 111.316406 L 431.164062 111.316406 L 431.164062 106.777344 L 394.988281 80.6875 C 387.984375 75.640625 378.535156 75.640625 371.535156 80.6875 L 335.355469 106.777344 L 335.355469 165.46875 L 431.1875 165.46875 L 431.1875 147.789062 L 383.261719 147.789062 L 383.261719 125.691406 L 453.261719 125.691406 L 453.285156 136.742188 L 453.285156 187.566406 " fill-opacity="1" fill-rule="nonzero"/></g><g clip-path="url(#dc57e566ac)"><g clip-path="url(#fd421c737c)"><g transform="matrix(1, 0, 0, 1, 367, -0.000000000000008531)"><g clip-path="url(#8aea6508c5)"><g clip-path="url(#c084656903)"><g clip-path="url(#00029b78d8)"><path fill="#ffffff" d="M 0.015625 0 L 32.582031 0 L 32.582031 30.992188 L 0.015625 30.992188 Z M 0.015625 0 " fill-opacity="1" fill-rule="nonzero"/></g></g></g></g></g></g><path fill="#ffffff" d="M 727.382812 70.699219 C 728.523438 70.699219 729.269531 70.082031 729.269531 68.941406 C 729.269531 67.796875 728.523438 67.25 727.355469 67.25 L 725.535156 67.25 L 725.535156 70.699219 Z M 723.917969 65.769531 L 727.453125 65.769531 C 729.566406 65.769531 730.917969 66.898438 730.917969 68.910156 C 730.917969 70.433594 730.074219 71.390625 728.875 71.8125 L 731.1875 75.632812 L 729.300781 75.632812 L 727.214844 72.152344 C 727.199219 72.136719 726.691406 72.152344 726.679688 72.152344 L 725.535156 72.152344 L 725.535156 75.632812 L 723.917969 75.632812 L 723.917969 65.769531 " fill-opacity="1" fill-rule="nonzero"/><g clip-path="url(#c9bcc00811)"><path fill="#ffffff" d="M 727.234375 62.449219 C 726.121094 62.449219 725.042969 62.667969 724.027344 63.097656 C 723.042969 63.511719 722.160156 64.109375 721.40625 64.863281 C 720.648438 65.621094 720.050781 66.503906 719.636719 67.484375 C 719.207031 68.503906 718.988281 69.582031 718.988281 70.695312 C 718.988281 71.808594 719.207031 72.890625 719.636719 73.90625 C 720.050781 74.886719 720.648438 75.769531 721.40625 76.527344 C 722.160156 77.285156 723.042969 77.878906 724.027344 78.292969 C 725.042969 78.722656 726.121094 78.941406 727.234375 78.941406 C 728.347656 78.941406 729.429688 78.722656 730.445312 78.292969 C 731.425781 77.878906 732.308594 77.285156 733.066406 76.527344 C 733.824219 75.769531 734.417969 74.886719 734.832031 73.90625 C 735.261719 72.890625 735.480469 71.808594 735.480469 70.695312 C 735.480469 69.582031 735.261719 68.503906 734.832031 67.484375 C 734.417969 66.503906 733.824219 65.621094 733.066406 64.863281 C 732.308594 64.109375 731.425781 63.511719 730.445312 63.097656 C 729.429688 62.667969 728.347656 62.449219 727.234375 62.449219 Z M 727.234375 80.648438 C 725.890625 80.648438 724.585938 80.386719 723.359375 79.867188 C 722.175781 79.367188 721.109375 78.648438 720.195312 77.734375 C 719.28125 76.820312 718.566406 75.757812 718.0625 74.570312 C 717.542969 73.34375 717.28125 72.039062 717.28125 70.695312 C 717.28125 69.351562 717.542969 68.046875 718.0625 66.820312 C 718.566406 65.636719 719.28125 64.570312 720.195312 63.65625 C 721.109375 62.742188 722.175781 62.023438 723.359375 61.523438 C 724.585938 61.003906 725.890625 60.742188 727.234375 60.742188 C 728.578125 60.742188 729.882812 61.003906 731.109375 61.523438 C 732.296875 62.023438 733.359375 62.742188 734.273438 63.65625 C 735.1875 64.570312 735.90625 65.636719 736.40625 66.820312 C 736.925781 68.046875 737.1875 69.351562 737.1875 70.695312 C 737.1875 72.039062 736.925781 73.34375 736.40625 74.570312 C 735.90625 75.757812 735.1875 76.820312 734.273438 77.734375 C 733.359375 78.648438 732.296875 79.367188 731.109375 79.867188 C 729.882812 80.386719 728.578125 80.648438 727.234375 80.648438 " fill-opacity="1" fill-rule="nonzero"/></g><g transform="matrix(1, 0, 0, 1, 0, 8)"><g clip-path="url(#51014482df)"><g fill="#ffffff" fill-opacity="1"><g transform="translate(-7.388174, 179.47911)"><g><path d="M 12.875 0 L 12.875 -126.828125 L 59.1875 -126.828125 L 91.671875 -35.75 L 92.625 -35.75 L 124.328125 -126.828125 L 168.53125 -126.828125 L 168.53125 0 L 139.125 0 L 140.859375 -95.3125 L 138.75 -95.3125 L 102.8125 0 L 77.4375 0 L 42.078125 -95.3125 L 39.96875 -95.3125 L 41.703125 0 Z M 12.875 0 "/></g></g></g><g fill="#ffffff" fill-opacity="1"><g transform="translate(176.708431, 179.47911)"><g><path d="M 12.875 0 L 12.875 -126.828125 L 44 -126.828125 L 44 0 Z M 35.359375 0 L 35.359375 -25.171875 L 112.609375 -25.171875 L 112.609375 0 Z M 35.359375 -52.65625 L 35.359375 -75.140625 L 103 -75.140625 L 103 -52.65625 Z M 35.359375 -101.84375 L 35.359375 -126.828125 L 112.234375 -126.828125 L 112.234375 -101.84375 Z M 35.359375 -101.84375 "/></g></g></g></g></g><g transform="matrix(1, 0, 0, 1, 462, 8)"><g clip-path="url(#2d94a0acc2)"><g fill="#ffffff" fill-opacity="1"><g transform="translate(0.705449, 179.47911)"><g><path d="M 12.875 0 L 12.875 -126.828125 L 53.234375 -126.828125 L 106.84375 -41.703125 L 108.765625 -41.703125 L 107.234375 -126.828125 L 137.40625 -126.828125 L 137.40625 0 L 100.703125 0 L 43.4375 -89.75 L 41.3125 -89.75 L 43.046875 0 Z M 12.875 0 "/></g></g></g><g fill="#ffffff" fill-opacity="1"><g transform="translate(151.749215, 179.47911)"><g><path d="M 2.5 0 L 45.546875 -126.828125 L 90.515625 -126.828125 L 133.375 0 L 99.546875 0 L 69.5625 -102.421875 L 66.6875 -102.421875 L 36.328125 0 Z M 27.859375 -23.640625 L 27.859375 -44.578125 L 112.609375 -44.578125 L 112.609375 -23.640625 Z M 27.859375 -23.640625 "/></g></g></g></g></g></svg>