<svg xmlns="http://www.w3.org/2000/svg" xmlns:xlink="http://www.w3.org/1999/xlink" width="1000" zoomAndPan="magnify" viewBox="0 0 750 225" height="300" preserveAspectRatio="xMidYMid meet" version="1.0"><defs><g/><clipPath id="e97f62b609"><rect x="0" width="300" y="0" height="217"/></clipPath><clipPath id="6865cfef7b"><path d="M 312.898438 45 L 453.148438 45 L 453.148438 187.464844 L 312.898438 187.464844 Z M 312.898438 45 " clip-rule="nonzero"/></clipPath><clipPath id="90cbd823a1"><path d="M 366.699219 0 L 399.292969 0 L 399.292969 31.019531 L 366.699219 31.019531 Z M 366.699219 0 " clip-rule="nonzero"/></clipPath><clipPath id="1c21feaf0d"><path d="M 382.972656 0 L 386.8125 11.847656 L 399.246094 11.847656 L 389.1875 19.171875 L 393.027344 31.019531 L 382.972656 23.695312 L 372.917969 31.019531 L 376.757812 19.171875 L 366.699219 11.847656 L 379.132812 11.847656 Z M 382.972656 0 " clip-rule="nonzero"/></clipPath><clipPath id="1afb9a17ec"><path d="M 0.699219 0 L 33.292969 0 L 33.292969 31.019531 L 0.699219 31.019531 Z M 0.699219 0 " clip-rule="nonzero"/></clipPath><clipPath id="669f8038d8"><path d="M 16.972656 0 L 20.8125 11.847656 L 33.246094 11.847656 L 23.1875 19.171875 L 27.027344 31.019531 L 16.972656 23.695312 L 6.917969 31.019531 L 10.757812 19.171875 L 0.699219 11.847656 L 13.132812 11.847656 Z M 16.972656 0 " clip-rule="nonzero"/></clipPath><clipPath id="b90158dbd1"><rect x="0" width="34" y="0" height="32"/></clipPath><clipPath id="a7084f580c"><rect x="0" width="288" y="0" height="217"/></clipPath><clipPath id="ec474d7b1d"><path d="M 717.253906 62.476562 L 737.503906 62.476562 L 737.503906 82.726562 L 717.253906 82.726562 Z M 717.253906 62.476562 " clip-rule="nonzero"/></clipPath></defs><g transform="matrix(1, 0, 0, 1, 0, 8)"><g clip-path="url(#e97f62b609)"><g fill="#000000" fill-opacity="1"><g transform="translate(-8.010956, 179.633269)"><g><path d="M 12.890625 0 L 12.890625 -126.9375 L 59.234375 -126.9375 L 91.734375 -35.765625 L 92.703125 -35.765625 L 124.4375 -126.9375 L 168.671875 -126.9375 L 168.671875 0 L 139.25 0 L 140.984375 -95.390625 L 138.859375 -95.390625 L 102.890625 0 L 77.515625 0 L 42.125 -95.390625 L 40 -95.390625 L 41.734375 0 Z M 12.890625 0 "/></g></g></g><g fill="#000000" fill-opacity="1"><g transform="translate(176.237026, 179.633269)"><g><path d="M 12.890625 0 L 12.890625 -126.9375 L 44.046875 -126.9375 L 44.046875 0 Z M 35.390625 0 L 35.390625 -25.1875 L 112.703125 -25.1875 L 112.703125 0 Z M 35.390625 -52.703125 L 35.390625 -75.203125 L 103.09375 -75.203125 L 103.09375 -52.703125 Z M 35.390625 -101.9375 L 35.390625 -126.9375 L 112.3125 -126.9375 L 112.3125 -101.9375 Z M 35.390625 -101.9375 "/></g></g></g></g></g><g clip-path="url(#6865cfef7b)"><path fill="#000000" d="M 453.148438 187.40625 L 312.902344 187.40625 L 312.902344 95.433594 L 383.011719 45.027344 L 453.125 95.433594 L 453.125 111.257812 L 430.992188 111.257812 L 430.992188 106.726562 L 394.757812 80.675781 C 387.746094 75.632812 378.28125 75.632812 371.269531 80.675781 L 335.03125 106.726562 L 335.03125 165.339844 L 431.015625 165.339844 L 431.015625 147.683594 L 383.011719 147.683594 L 383.011719 125.617188 L 453.125 125.617188 L 453.148438 136.648438 L 453.148438 187.40625 " fill-opacity="1" fill-rule="nonzero"/></g><g clip-path="url(#90cbd823a1)"><g clip-path="url(#1c21feaf0d)"><g transform="matrix(1, 0, 0, 1, 366, -0.000000000000008531)"><g clip-path="url(#b90158dbd1)"><g clip-path="url(#1afb9a17ec)"><g clip-path="url(#669f8038d8)"><path fill="#000000" d="M 0.699219 0 L 33.292969 0 L 33.292969 31.019531 L 0.699219 31.019531 Z M 0.699219 0 " fill-opacity="1" fill-rule="nonzero"/></g></g></g></g></g></g><g transform="matrix(1, 0, 0, 1, 462, 8)"><g clip-path="url(#a7084f580c)"><g fill="#000000" fill-opacity="1"><g transform="translate(0.469258, 179.633269)"><g><path d="M 12.890625 0 L 12.890625 -126.9375 L 53.28125 -126.9375 L 106.9375 -41.734375 L 108.859375 -41.734375 L 107.3125 -126.9375 L 137.515625 -126.9375 L 137.515625 0 L 100.78125 0 L 43.46875 -89.8125 L 41.34375 -89.8125 L 43.078125 0 Z M 12.890625 0 "/></g></g></g><g fill="#000000" fill-opacity="1"><g transform="translate(151.637222, 179.633269)"><g><path d="M 2.5 0 L 45.578125 -126.9375 L 90.59375 -126.9375 L 133.46875 0 L 99.625 0 L 69.625 -102.515625 L 66.734375 -102.515625 L 36.34375 0 Z M 27.890625 -23.65625 L 27.890625 -44.625 L 112.703125 -44.625 L 112.703125 -23.65625 Z M 27.890625 -23.65625 "/></g></g></g></g></g><path fill="#000000" d="M 727.527344 72.605469 C 728.6875 72.605469 729.449219 71.976562 729.449219 70.816406 C 729.449219 69.65625 728.6875 69.097656 727.5 69.097656 L 725.652344 69.097656 L 725.652344 72.605469 Z M 724.003906 67.589844 L 727.601562 67.589844 C 729.75 67.589844 731.125 68.738281 731.125 70.789062 C 731.125 72.335938 730.265625 73.308594 729.046875 73.738281 L 731.398438 77.625 L 729.476562 77.625 L 727.355469 74.082031 C 727.34375 74.070312 726.828125 74.082031 726.8125 74.082031 L 725.652344 74.082031 L 725.652344 77.625 L 724.003906 77.625 L 724.003906 67.589844 " fill-opacity="1" fill-rule="nonzero"/><g clip-path="url(#ec474d7b1d)"><path fill="#000000" d="M 727.378906 64.214844 C 726.246094 64.214844 725.148438 64.4375 724.113281 64.875 C 723.117188 65.296875 722.21875 65.902344 721.449219 66.671875 C 720.675781 67.441406 720.074219 68.339844 719.648438 69.335938 C 719.214844 70.371094 718.992188 71.46875 718.992188 72.601562 C 718.992188 73.734375 719.214844 74.832031 719.648438 75.867188 C 720.074219 76.863281 720.675781 77.761719 721.449219 78.53125 C 722.21875 79.300781 723.117188 79.90625 724.113281 80.328125 C 725.148438 80.765625 726.246094 80.988281 727.378906 80.988281 C 728.511719 80.988281 729.609375 80.765625 730.640625 80.328125 C 731.640625 79.90625 732.539062 79.300781 733.308594 78.53125 C 734.078125 77.761719 734.683594 76.863281 735.105469 75.867188 C 735.542969 74.832031 735.765625 73.734375 735.765625 72.601562 C 735.765625 71.46875 735.542969 70.371094 735.105469 69.335938 C 734.683594 68.339844 734.078125 67.441406 733.308594 66.671875 C 732.539062 65.902344 731.640625 65.296875 730.640625 64.875 C 729.609375 64.4375 728.511719 64.214844 727.378906 64.214844 Z M 727.378906 82.726562 C 726.011719 82.726562 724.6875 82.457031 723.4375 81.929688 C 722.230469 81.421875 721.148438 80.691406 720.21875 79.761719 C 719.289062 78.832031 718.558594 77.75 718.050781 76.542969 C 717.519531 75.292969 717.253906 73.96875 717.253906 72.601562 C 717.253906 71.234375 717.519531 69.910156 718.050781 68.660156 C 718.558594 67.453125 719.289062 66.371094 720.21875 65.441406 C 721.148438 64.511719 722.230469 63.78125 723.4375 63.273438 C 724.6875 62.746094 726.011719 62.476562 727.378906 62.476562 C 728.746094 62.476562 730.070312 62.746094 731.320312 63.273438 C 732.523438 63.78125 733.609375 64.511719 734.535156 65.441406 C 735.464844 66.371094 736.195312 67.453125 736.707031 68.660156 C 737.234375 69.910156 737.503906 71.234375 737.503906 72.601562 C 737.503906 73.96875 737.234375 75.292969 736.707031 76.542969 C 736.195312 77.75 735.464844 78.832031 734.535156 79.761719 C 733.609375 80.691406 732.523438 81.421875 731.320312 81.929688 C 730.070312 82.457031 728.746094 82.726562 727.378906 82.726562 " fill-opacity="1" fill-rule="nonzero"/></g></svg>