<svg xmlns="http://www.w3.org/2000/svg" xmlns:xlink="http://www.w3.org/1999/xlink" width="500" zoomAndPan="magnify" viewBox="0 0 375 374.999991" height="500" preserveAspectRatio="xMidYMid meet" version="1.0"><defs><clipPath id="64688b65d9"><path d="M 0 87.171875 L 126 87.171875 L 126 375 L 0 375 Z M 0 87.171875 " clip-rule="nonzero"/></clipPath><clipPath id="8066b9eb49"><path d="M 249 87.171875 L 375 87.171875 L 375 375 L 249 375 Z M 249 87.171875 " clip-rule="nonzero"/></clipPath><clipPath id="99028fb3bb"><path d="M 237 43 L 375 43 L 375 309.75 L 237 309.75 Z M 237 43 " clip-rule="nonzero"/></clipPath><clipPath id="ca1c16de8e"><path d="M 0 43 L 138 43 L 138 309.75 L 0 309.75 Z M 0 43 " clip-rule="nonzero"/></clipPath></defs><g clip-path="url(#64688b65d9)"><path fill="#d4af37" d="M 0 374.914062 C 0 278.441406 0 183.566406 0 87.207031 C 42.347656 122.738281 83.597656 157.351562 125.613281 192.597656 C 117.8125 199.238281 110.375 205.554688 102.511719 212.25 C 78.351562 192 54.441406 171.960938 29.082031 150.714844 C 29.082031 154.691406 29.082031 157.160156 29.082031 159.628906 C 29.066406 220.683594 28.984375 281.738281 29.148438 342.789062 C 29.164062 348.355469 27.75 352.222656 23.179688 355.65625 C 15.5 361.449219 8.335938 367.921875 0 374.914062 Z M 0 374.914062 " fill-opacity="1" fill-rule="nonzero"/></g><g clip-path="url(#8066b9eb49)"><path fill="#d4af37" d="M 346.214844 150.878906 C 321.101562 171.914062 297.359375 191.820312 273.105469 212.128906 C 265.441406 205.710938 257.914062 199.410156 249.851562 192.652344 C 291.65625 157.558594 332.941406 122.894531 375 87.570312 C 375 183.363281 375 278.449219 375 374.453125 C 365.65625 366.625 356.503906 359.261719 347.804688 351.398438 C 346.296875 350.035156 346.28125 346.566406 346.28125 344.070312 C 346.207031 282.84375 346.214844 221.617188 346.226562 160.394531 C 346.214844 157.777344 346.214844 155.164062 346.214844 150.878906 Z M 346.214844 150.878906 " fill-opacity="1" fill-rule="nonzero"/></g><path fill="#d4af37" d="M 187.734375 217.40625 C 144.824219 253.398438 102.339844 289.035156 58.566406 325.746094 C 58.566406 312.144531 58.484375 299.988281 58.691406 287.839844 C 58.710938 286.65625 60.316406 285.332031 61.445312 284.378906 C 102.9375 249.492188 144.460938 214.65625 185.992188 179.816406 C 186.484375 179.40625 187.117188 179.160156 188.0625 178.617188 C 196.082031 185.335938 204.160156 192.109375 212.234375 198.890625 C 245.65625 226.941406 279.035156 255.042969 312.566406 282.953125 C 315.988281 285.804688 317.261719 288.710938 317.152344 293.03125 C 316.886719 303.363281 317.070312 313.714844 317.070312 325.863281 C 273.421875 289.265625 230.867188 253.578125 187.734375 217.40625 Z M 187.734375 217.40625 " fill-opacity="1" fill-rule="nonzero"/><path fill="#d4af37" d="M 191.613281 325.238281 C 191.613281 312.878906 191.613281 301.304688 191.613281 289.199219 C 202.410156 289.199219 212.996094 289.199219 224.429688 289.199219 C 224.429688 301.105469 224.429688 313.007812 224.429688 325.238281 C 213.558594 325.238281 202.910156 325.238281 191.613281 325.238281 Z M 191.613281 325.238281 " fill-opacity="1" fill-rule="nonzero"/><path fill="#d4af37" d="M 151.808594 289.109375 C 162.722656 289.109375 173.164062 289.109375 183.984375 289.109375 C 183.984375 301.222656 183.984375 312.960938 183.984375 325.085938 C 173.179688 325.085938 162.738281 325.085938 151.808594 325.085938 C 151.808594 313.214844 151.808594 301.457031 151.808594 289.109375 Z M 151.808594 289.109375 " fill-opacity="1" fill-rule="nonzero"/><path fill="#d4af37" d="M 184.023438 245.246094 C 184.023438 256.8125 184.023438 268.398438 184.023438 280.628906 C 173.515625 280.628906 162.882812 280.628906 152.179688 280.628906 C 148.230469 265.121094 166.207031 244.699219 184.023438 245.246094 Z M 184.023438 245.246094 " fill-opacity="1" fill-rule="nonzero"/><path fill="#d4af37" d="M 223.992188 280.773438 C 213.078125 280.773438 202.628906 280.773438 191.785156 280.773438 C 191.785156 268.824219 191.785156 257.25 191.785156 245.679688 C 207.703125 243.863281 224.664062 261.988281 223.992188 280.773438 Z M 223.992188 280.773438 " fill-opacity="1" fill-rule="nonzero"/><path fill="#d4af37" d="M 191.074219 41.925781 C 191.074219 42.398438 190.984375 42.851562 190.804688 43.289062 C 190.625 43.726562 190.367188 44.109375 190.03125 44.445312 C 189.699219 44.777344 189.3125 45.035156 188.878906 45.214844 C 188.441406 45.394531 187.988281 45.484375 187.515625 45.484375 C 187.042969 45.484375 186.589844 45.394531 186.152344 45.214844 C 185.71875 45.035156 185.332031 44.777344 185 44.445312 C 184.664062 44.109375 184.40625 43.726562 184.226562 43.289062 C 184.046875 42.851562 183.957031 42.398438 183.957031 41.925781 C 183.957031 41.453125 184.046875 41 184.226562 40.5625 C 184.40625 40.128906 184.664062 39.742188 185 39.410156 C 185.332031 39.074219 185.71875 38.820312 186.152344 38.636719 C 186.589844 38.457031 187.042969 38.367188 187.515625 38.367188 C 187.988281 38.367188 188.441406 38.457031 188.878906 38.636719 C 189.3125 38.820312 189.699219 39.074219 190.03125 39.410156 C 190.367188 39.742188 190.625 40.128906 190.804688 40.5625 C 190.984375 41 191.074219 41.453125 191.074219 41.925781 Z M 191.074219 41.925781 " fill-opacity="1" fill-rule="nonzero"/><path fill="#d4af37" d="M 145.589844 41.925781 C 166.792969 44.277344 177.578125 46.414062 182.734375 41.925781 C 177.578125 37.453125 166.792969 39.589844 145.589844 41.925781 Z M 145.589844 41.925781 " fill-opacity="1" fill-rule="nonzero"/><path fill="#d4af37" d="M 229.457031 41.925781 C 208.238281 39.589844 197.46875 37.453125 192.3125 41.925781 C 197.46875 46.429688 208.238281 44.277344 229.457031 41.925781 Z M 229.457031 41.925781 " fill-opacity="1" fill-rule="nonzero"/><path fill="#d4af37" d="M 164.765625 64.691406 C 177.039062 54.863281 183.753906 50.359375 184.078125 45.378906 C 179.097656 45.703125 174.59375 52.417969 164.765625 64.691406 Z M 164.765625 64.691406 " fill-opacity="1" fill-rule="nonzero"/><path fill="#d4af37" d="M 210.28125 19.175781 C 198.007812 29.003906 191.292969 33.507812 190.964844 38.492188 C 195.949219 38.164062 200.453125 31.449219 210.28125 19.175781 Z M 210.28125 19.175781 " fill-opacity="1" fill-rule="nonzero"/><path fill="#d4af37" d="M 210.28125 64.691406 C 200.453125 52.417969 195.949219 45.703125 190.964844 45.378906 C 191.292969 50.359375 198.007812 54.863281 210.28125 64.691406 Z M 210.28125 64.691406 " fill-opacity="1" fill-rule="nonzero"/><path fill="#d4af37" d="M 164.765625 19.175781 C 174.59375 31.449219 179.097656 38.164062 184.078125 38.492188 C 183.753906 33.507812 176.976562 29.003906 164.765625 19.175781 Z M 164.765625 19.175781 " fill-opacity="1" fill-rule="nonzero"/><path fill="#d4af37" d="M 187.515625 0 C 185.179688 21.203125 183.042969 31.992188 187.515625 37.144531 C 192.003906 31.992188 189.867188 21.203125 187.515625 0 Z M 187.515625 0 " fill-opacity="1" fill-rule="nonzero"/><path fill="#d4af37" d="M 187.515625 83.867188 C 189.867188 62.648438 192.003906 51.878906 187.515625 46.722656 C 183.042969 51.878906 185.179688 62.648438 187.515625 83.867188 Z M 187.515625 83.867188 " fill-opacity="1" fill-rule="nonzero"/><g clip-path="url(#99028fb3bb)"><path fill="#d4af37" d="M 373.730469 309.84375 C 373.515625 309.84375 373.335938 309.769531 373.183594 309.617188 C 373.03125 309.464844 372.957031 309.285156 372.957031 309.070312 L 372.957031 223.28125 C 372.953125 220.777344 372.894531 218.277344 372.789062 215.773438 C 372.683594 213.273438 372.527344 210.773438 372.316406 208.277344 C 372.109375 205.78125 371.851562 203.292969 371.546875 200.808594 C 371.238281 198.320312 370.878906 195.84375 370.472656 193.375 C 370.0625 190.902344 369.605469 188.441406 369.097656 185.988281 C 368.589844 183.535156 368.035156 181.097656 367.425781 178.667969 C 366.820312 176.238281 366.167969 173.820312 365.464844 171.417969 C 364.757812 169.015625 364.007812 166.625 363.207031 164.253906 C 362.40625 161.878906 361.558594 159.523438 360.664062 157.1875 C 359.769531 154.847656 358.828125 152.527344 357.839844 150.226562 C 356.851562 147.925781 355.816406 145.644531 354.734375 143.386719 C 353.652344 141.128906 352.527344 138.894531 351.355469 136.679688 C 350.183594 134.464844 348.96875 132.277344 347.710938 130.113281 C 346.449219 127.949219 345.148438 125.8125 343.800781 123.699219 C 342.457031 121.585938 341.066406 119.503906 339.636719 117.449219 C 338.207031 115.394531 336.734375 113.367188 335.222656 111.371094 C 333.710938 109.375 332.160156 107.410156 330.570312 105.476562 C 328.976562 103.542969 327.347656 101.640625 325.679688 99.773438 C 324.011719 97.90625 322.308594 96.074219 320.566406 94.273438 C 318.824219 92.476562 317.046875 90.710938 315.234375 88.984375 C 313.417969 87.257812 311.574219 85.570312 309.691406 83.917969 C 307.808594 82.265625 305.894531 80.648438 303.949219 79.074219 C 302.003906 77.5 300.023438 75.964844 298.015625 74.46875 C 296.007812 72.972656 293.96875 71.519531 291.902344 70.105469 C 289.835938 68.695312 287.738281 67.324219 285.617188 65.996094 C 283.496094 64.664062 281.34375 63.378906 279.171875 62.140625 C 276.996094 60.898438 274.796875 59.699219 272.574219 58.546875 C 270.351562 57.394531 268.105469 56.285156 265.839844 55.226562 C 263.570312 54.164062 261.28125 53.144531 258.972656 52.175781 C 256.664062 51.207031 254.339844 50.285156 251.992188 49.410156 C 249.648438 48.53125 247.285156 47.703125 244.90625 46.925781 C 242.523438 46.144531 240.128906 45.410156 237.722656 44.726562 C 237.507812 44.671875 237.34375 44.550781 237.234375 44.359375 C 237.121094 44.167969 237.09375 43.964844 237.148438 43.753906 C 237.203125 43.539062 237.328125 43.375 237.519531 43.265625 C 237.707031 43.152344 237.910156 43.125 238.125 43.179688 C 240.554688 43.871094 242.96875 44.609375 245.367188 45.394531 C 247.765625 46.183594 250.148438 47.015625 252.515625 47.898438 C 254.878906 48.785156 257.226562 49.714844 259.554688 50.691406 C 261.882812 51.667969 264.191406 52.695312 266.476562 53.765625 C 268.765625 54.835938 271.027344 55.953125 273.269531 57.117188 C 275.511719 58.277344 277.730469 59.484375 279.921875 60.738281 C 282.117188 61.992188 284.28125 63.285156 286.421875 64.625 C 288.5625 65.964844 290.675781 67.347656 292.761719 68.773438 C 294.84375 70.199219 296.902344 71.664062 298.925781 73.171875 C 300.953125 74.679688 302.945312 76.226562 304.910156 77.816406 C 306.871094 79.40625 308.800781 81.03125 310.699219 82.699219 C 312.597656 84.363281 314.460938 86.070312 316.289062 87.808594 C 318.117188 89.550781 319.910156 91.328125 321.664062 93.144531 C 323.421875 94.957031 325.140625 96.804688 326.824219 98.691406 C 328.507812 100.574219 330.148438 102.488281 331.753906 104.441406 C 333.359375 106.390625 334.921875 108.371094 336.449219 110.382812 C 337.972656 112.398438 339.457031 114.441406 340.898438 116.511719 C 342.339844 118.585938 343.742188 120.6875 345.097656 122.816406 C 346.457031 124.945312 347.769531 127.101562 349.039062 129.285156 C 350.308594 131.464844 351.535156 133.671875 352.714844 135.90625 C 353.898438 138.136719 355.035156 140.390625 356.125 142.667969 C 357.214844 144.945312 358.257812 147.246094 359.253906 149.566406 C 360.25 151.886719 361.203125 154.226562 362.105469 156.582031 C 363.007812 158.941406 363.863281 161.316406 364.667969 163.710938 C 365.476562 166.101562 366.234375 168.511719 366.945312 170.933594 C 367.652344 173.359375 368.3125 175.792969 368.925781 178.246094 C 369.535156 180.695312 370.097656 183.15625 370.609375 185.628906 C 371.121094 188.101562 371.585938 190.582031 371.996094 193.074219 C 372.40625 195.566406 372.769531 198.066406 373.078125 200.570312 C 373.390625 203.078125 373.648438 205.589844 373.859375 208.105469 C 374.070312 210.621094 374.226562 213.140625 374.335938 215.664062 C 374.441406 218.1875 374.5 220.710938 374.503906 223.234375 L 374.503906 309.070312 C 374.503906 309.285156 374.429688 309.464844 374.277344 309.617188 C 374.128906 309.769531 373.945312 309.84375 373.730469 309.84375 Z M 373.730469 309.84375 " fill-opacity="1" fill-rule="nonzero"/></g><g clip-path="url(#ca1c16de8e)"><path fill="#d4af37" d="M 1.316406 309.84375 C 1.101562 309.84375 0.917969 309.769531 0.769531 309.617188 C 0.617188 309.464844 0.542969 309.285156 0.542969 309.070312 L 0.542969 223.28125 C 0.546875 220.757812 0.601562 218.234375 0.710938 215.710938 C 0.816406 213.1875 0.976562 210.667969 1.183594 208.152344 C 1.394531 205.636719 1.652344 203.125 1.964844 200.617188 C 2.273438 198.113281 2.636719 195.613281 3.046875 193.125 C 3.457031 190.632812 3.917969 188.148438 4.429688 185.675781 C 4.941406 183.203125 5.503906 180.742188 6.117188 178.292969 C 6.726562 175.84375 7.386719 173.40625 8.097656 170.984375 C 8.804688 168.558594 9.5625 166.152344 10.371094 163.757812 C 11.175781 161.367188 12.03125 158.992188 12.933594 156.632812 C 13.835938 154.273438 14.785156 151.9375 15.785156 149.617188 C 16.78125 147.296875 17.824219 144.996094 18.914062 142.71875 C 20.003906 140.441406 21.140625 138.1875 22.320312 135.957031 C 23.5 133.722656 24.726562 131.515625 25.996094 129.335938 C 27.265625 127.152344 28.582031 124.996094 29.9375 122.867188 C 31.296875 120.738281 32.695312 118.636719 34.136719 116.566406 C 35.578125 114.492188 37.0625 112.449219 38.585938 110.4375 C 40.113281 108.421875 41.675781 106.441406 43.28125 104.492188 C 44.886719 102.542969 46.527344 100.625 48.210938 98.742188 C 49.890625 96.859375 51.613281 95.011719 53.367188 93.199219 C 55.125 91.382812 56.917969 89.605469 58.746094 87.863281 C 60.574219 86.125 62.4375 84.417969 64.335938 82.753906 C 66.230469 81.085938 68.160156 79.460938 70.125 77.871094 C 72.085938 76.28125 74.082031 74.734375 76.105469 73.226562 C 78.132812 71.71875 80.1875 70.253906 82.273438 68.828125 C 84.355469 67.402344 86.46875 66.023438 88.609375 64.683594 C 90.75 63.34375 92.917969 62.046875 95.109375 60.796875 C 97.304688 59.542969 99.519531 58.335938 101.761719 57.175781 C 104.003906 56.011719 106.265625 54.894531 108.554688 53.824219 C 110.839844 52.753906 113.148438 51.730469 115.476562 50.75 C 117.804688 49.773438 120.152344 48.84375 122.515625 47.960938 C 124.882812 47.078125 127.265625 46.242188 129.664062 45.457031 C 132.0625 44.667969 134.476562 43.929688 136.90625 43.242188 C 137.113281 43.183594 137.308594 43.203125 137.496094 43.304688 C 137.683594 43.410156 137.804688 43.5625 137.867188 43.769531 C 137.921875 43.976562 137.894531 44.171875 137.789062 44.359375 C 137.683594 44.542969 137.53125 44.667969 137.324219 44.726562 C 134.914062 45.410156 132.519531 46.144531 130.140625 46.921875 C 127.761719 47.703125 125.398438 48.53125 123.054688 49.40625 C 120.707031 50.28125 118.378906 51.207031 116.070312 52.175781 C 113.761719 53.144531 111.472656 54.160156 109.207031 55.222656 C 106.9375 56.285156 104.695312 57.394531 102.46875 58.546875 C 100.246094 59.699219 98.046875 60.894531 95.875 62.136719 C 93.699219 63.378906 91.550781 64.664062 89.429688 65.992188 C 87.304688 67.320312 85.210938 68.691406 83.140625 70.105469 C 81.074219 71.515625 79.035156 72.972656 77.027344 74.464844 C 75.019531 75.960938 73.042969 77.496094 71.09375 79.074219 C 69.148438 80.648438 67.234375 82.261719 65.351562 83.914062 C 63.472656 85.566406 61.625 87.257812 59.8125 88.984375 C 57.996094 90.710938 56.21875 92.472656 54.476562 94.273438 C 52.734375 96.070312 51.03125 97.902344 49.363281 99.773438 C 47.695312 101.640625 46.066406 103.539062 44.472656 105.472656 C 42.882812 107.40625 41.332031 109.371094 39.820312 111.367188 C 38.308594 113.363281 36.835938 115.390625 35.40625 117.445312 C 33.976562 119.5 32.589844 121.585938 31.242188 123.695312 C 29.894531 125.808594 28.59375 127.945312 27.332031 130.109375 C 26.074219 132.277344 24.859375 134.464844 23.6875 136.675781 C 22.515625 138.890625 21.390625 141.128906 20.308594 143.386719 C 19.230469 145.644531 18.195312 147.925781 17.203125 150.226562 C 16.214844 152.527344 15.273438 154.84375 14.378906 157.183594 C 13.484375 159.523438 12.636719 161.878906 11.835938 164.25 C 11.035156 166.625 10.285156 169.011719 9.582031 171.414062 C 8.878906 173.820312 8.222656 176.234375 7.617188 178.664062 C 7.011719 181.09375 6.453125 183.535156 5.945312 185.988281 C 5.4375 188.441406 4.980469 190.902344 4.574219 193.371094 C 4.164062 195.84375 3.808594 198.320312 3.5 200.804688 C 3.191406 203.292969 2.933594 205.78125 2.726562 208.277344 C 2.519531 210.773438 2.363281 213.273438 2.257812 215.773438 C 2.148438 218.273438 2.09375 220.777344 2.089844 223.28125 L 2.089844 309.070312 C 2.089844 309.285156 2.011719 309.464844 1.863281 309.617188 C 1.710938 309.769531 1.527344 309.84375 1.316406 309.84375 Z M 1.316406 309.84375 " fill-opacity="1" fill-rule="nonzero"/></g></svg>