<svg xmlns="http://www.w3.org/2000/svg" viewBox="0 0 1500 1500" preserveAspectRatio="xMidYMid meet">
  <defs>
    <linearGradient id="megnaGradient" gradientUnits="userSpaceOnUse" x1="0" y1="0" x2="1500" y2="1500">
      <stop offset="0%" stop-color="#f1dfbf" />
      <stop offset="46%" stop-color="#d6bb92" />
      <stop offset="100%" stop-color="#ba8d57" />
    </linearGradient>
  </defs>
  <path
    fill="url(#megnaGradient)"
    d="M 1309.699219 1499.476562 L 190.292969 1499.476562 L 190.292969 763.214844 L 749.910156 359.683594 L 1309.527344 763.214844 L 1309.527344 889.894531 L 1132.871094 889.894531 L 1132.871094 853.617188 L 843.652344 645.066406 C 787.671875 604.699219 712.144531 604.699219 656.164062 645.066406 L 366.945312 853.617188 L 366.945312 1322.832031 L 1133.054688 1322.832031 L 1133.054688 1181.488281 L 749.910156 1181.488281 L 749.910156 1004.832031 L 1309.527344 1004.832031 L 1309.699219 1093.160156 L 1309.699219 1499.476562 Z"
  />
  <path
    fill="url(#megnaGradient)"
    d="M 750 0 L 780.683594 94.636719 L 879.972656 94.636719 L 799.644531 153.125 L 830.328125 247.757812 L 750 189.273438 L 669.671875 247.757812 L 700.355469 153.125 L 620.027344 94.636719 L 719.316406 94.636719 Z"
  />
</svg>
